# Blender v2.76 (sub 0) OBJ File: ''
# www.blender.org
mtllib arrow.mtl
o Cylinder.001_Cylinder.002
v -0.248687 -0.000000 -0.097986
v 0.248687 0.000000 -0.097986
v -0.248687 -0.030279 -0.093190
v 0.248687 -0.030279 -0.093190
v -0.248687 -0.057595 -0.079272
v 0.248687 -0.057595 -0.079272
v -0.248687 -0.079273 -0.057595
v 0.248687 -0.079272 -0.057595
v -0.248687 -0.093190 -0.030279
v 0.248687 -0.093190 -0.030279
v -0.248687 -0.097986 0.000000
v 0.248687 -0.097986 0.000000
v -0.248687 -0.093190 0.030279
v 0.248687 -0.093190 0.030279
v -0.248687 -0.079273 0.057595
v 0.248687 -0.079272 0.057595
v -0.248687 -0.057595 0.079273
v 0.248687 -0.057595 0.079272
v -0.248687 -0.030279 0.093190
v 0.248687 -0.030279 0.093190
v -0.248687 -0.000000 0.097986
v 0.248687 0.000000 0.097986
v -0.248687 0.030279 0.093190
v 0.248687 0.030279 0.093190
v -0.248687 0.057595 0.079272
v 0.248687 0.057595 0.079272
v -0.248687 0.079272 0.057595
v 0.248687 0.079273 0.057595
v -0.248687 0.093190 0.030279
v 0.248687 0.093190 0.030279
v -0.248687 0.097986 -0.000000
v 0.248687 0.097986 -0.000000
v -0.248687 0.093190 -0.030279
v 0.248687 0.093190 -0.030279
v -0.248687 0.079272 -0.057595
v 0.248687 0.079272 -0.057595
v -0.248687 0.057595 -0.079272
v 0.248687 0.057595 -0.079273
v -0.248687 0.030279 -0.093190
v 0.248687 0.030279 -0.093190
v 0.272401 -0.046447 -0.142951
v 0.272401 0.000000 -0.150307
v 0.272401 -0.088348 -0.121601
v 0.272401 -0.121601 -0.088348
v 0.272401 -0.142951 -0.046448
v 0.272401 -0.150307 0.000000
v 0.272401 -0.142951 0.046448
v 0.272401 -0.121601 0.088348
v 0.272401 -0.088348 0.121601
v 0.272401 -0.046447 0.142951
v 0.272401 0.000000 0.150307
v 0.272401 0.046448 0.142951
v 0.272401 0.088349 0.121601
v 0.272401 0.121601 0.088348
v 0.272401 0.142951 0.046447
v 0.272401 0.150307 -0.000000
v 0.272401 0.142951 -0.046448
v 0.272401 0.121601 -0.088349
v 0.272401 0.088348 -0.121601
v 0.272401 0.046447 -0.142951
v 0.549034 0.000000 -0.000000
v 0.032081 -0.030279 0.093190
v -0.032081 -0.057595 0.079273
v 0.032081 -0.057595 0.079273
v -0.032081 -0.079272 0.057595
v 0.032081 -0.079272 0.057595
v -0.032081 -0.093190 0.030279
v 0.032081 -0.093190 0.030279
v -0.032081 -0.097986 0.000000
v 0.032081 -0.097986 0.000000
v -0.032081 -0.093190 -0.030279
v 0.032081 -0.093190 -0.030279
v -0.032081 -0.079272 -0.057595
v 0.032081 -0.079272 -0.057595
v -0.032081 -0.057595 -0.079272
v 0.032081 -0.057595 -0.079272
v -0.032081 -0.030279 -0.093190
v 0.032081 -0.030279 -0.093190
v 0.032081 0.000000 -0.097986
v -0.032081 -0.000000 -0.097986
v -0.032081 -0.030279 0.093190
v 0.032081 0.000000 0.097986
v -0.032081 0.000000 0.097986
v 0.032081 0.030279 0.093190
v -0.032081 0.030279 0.093190
v 0.032081 0.057595 0.079272
v -0.032081 0.057595 0.079272
v 0.032081 0.079273 0.057595
v -0.032081 0.079272 0.057595
v 0.032081 0.093190 0.030279
v -0.032081 0.093190 0.030279
v 0.032081 0.097986 -0.000000
v -0.032081 0.097986 -0.000000
v 0.032081 0.093190 -0.030279
v -0.032081 0.093190 -0.030279
v 0.032081 0.079272 -0.057595
v -0.032081 0.079272 -0.057595
v 0.032081 0.057595 -0.079273
v -0.032081 0.057595 -0.079273
v 0.032081 0.030279 -0.093190
v -0.032081 0.030279 -0.093190
v -0.000000 -0.000000 -0.407926
v -0.000000 0.000000 0.337657
v -0.000000 0.414928 -0.000000
v -0.000000 -0.330656 0.000000
v -0.310780 -0.000000 -0.133185
v -0.310780 -0.041156 -0.126666
v -0.310780 -0.078284 -0.107749
v -0.310780 -0.107749 -0.078284
v -0.310780 -0.126667 -0.041156
v -0.310780 -0.133185 0.000000
v -0.310780 -0.126667 0.041157
v -0.310780 -0.107749 0.078284
v -0.310780 -0.078284 0.107749
v -0.310780 -0.041156 0.126667
v -0.310780 -0.000000 0.133185
v -0.310780 0.041156 0.126667
v -0.310780 0.078284 0.107749
v -0.310780 0.107749 0.078284
v -0.310780 0.126666 0.041156
v -0.310780 0.133185 -0.000000
v -0.310780 0.126666 -0.041157
v -0.310780 0.107749 -0.078284
v -0.310780 0.078284 -0.107749
v -0.310780 0.041156 -0.126666
v 0.032081 0.372762 0.030279
v 0.032081 0.372852 -0.000000
v -0.032081 0.372762 0.030279
v -0.032081 0.372852 -0.000000
v 0.032081 0.372761 -0.030279
v -0.032081 0.372761 -0.030279
v 0.032081 -0.372762 0.030279
v -0.032081 -0.372762 0.030279
v 0.032081 -0.372762 -0.030279
v -0.032081 -0.372762 -0.030279
v -0.032081 -0.372852 0.000000
v 0.032081 -0.372852 0.000000
v 0.032081 0.030279 -0.372762
v 0.032081 0.000000 -0.372852
v -0.032081 0.030279 -0.372762
v -0.032081 -0.000000 -0.372852
v 0.032081 0.030279 0.372762
v -0.032081 0.030279 0.372762
v 0.032081 -0.030279 0.372762
v -0.032081 -0.030279 0.372762
v 0.032081 -0.030279 -0.372762
v -0.032081 -0.030279 -0.372761
v -0.032081 0.000000 0.372852
v 0.032081 0.000000 0.372852
vn 0.000000 -0.156400 -0.987700
vn 0.000000 -0.454000 -0.891000
vn 0.000000 -0.707100 -0.707100
vn 0.000000 -0.891000 -0.454000
vn 0.000000 -0.987700 -0.156400
vn 0.000000 -0.987700 0.156400
vn 0.000000 -0.891000 0.454000
vn 0.000000 -0.707100 0.707100
vn 0.000000 -0.454000 0.891000
vn 0.000000 -0.156400 0.987700
vn 0.000000 0.156400 0.987700
vn 0.000000 0.454000 0.891000
vn 0.000000 0.707100 0.707100
vn 0.000000 0.891000 0.454000
vn -0.000000 0.987700 0.156400
vn -0.000000 0.987700 -0.156400
vn -0.000000 0.891000 -0.454000
vn -0.000000 0.707100 -0.707100
vn -0.908900 -0.411900 0.065200
vn -0.000000 0.156400 -0.987700
vn -0.000000 0.454000 -0.891000
vn 0.488500 -0.861800 0.136500
vn -0.908900 0.065200 0.411900
vn -0.908900 0.411900 -0.065200
vn -0.908900 -0.371600 -0.189300
vn -0.908900 -0.189300 0.371600
vn -0.908900 0.371600 0.189300
vn -0.908900 0.189300 -0.371600
vn -0.908900 -0.189300 -0.371600
vn -0.908900 -0.371600 0.189300
vn -0.908900 0.189300 0.371600
vn -0.908900 0.371600 -0.189300
vn -0.908900 -0.411900 -0.065200
vn -0.908900 -0.065200 0.411900
vn -0.908900 0.411900 0.065200
vn -0.908900 0.065200 -0.411900
vn -0.908900 -0.294900 -0.294900
vn -0.908900 -0.294900 0.294900
vn -0.908900 -0.065200 -0.411900
vn -0.908900 0.294900 0.294900
vn -0.908900 0.294900 -0.294900
vn 1.000000 0.000000 -0.000000
vn -0.000000 1.000000 -0.000000
vn -1.000000 0.000000 0.000000
vn 0.472900 0.785100 -0.400000
vn 0.472900 -0.137800 0.870300
vn 0.472900 -0.623100 -0.623100
vn 0.472900 0.623100 -0.623100
vn 0.472900 0.137800 0.870300
vn 0.472900 -0.785100 -0.400000
vn 0.472900 0.400000 -0.785100
vn 0.472900 0.400000 0.785100
vn 0.472900 -0.870300 -0.137800
vn 0.472900 0.137800 -0.870300
vn 0.472900 0.623100 0.623100
vn 0.472900 -0.870300 0.137800
vn 0.472900 0.785100 0.400000
vn 0.472900 -0.785100 0.400000
vn 0.472900 0.870300 0.137800
vn 0.472900 -0.623100 0.623100
vn 0.472900 -0.137800 -0.870300
vn 0.472900 0.870300 -0.137800
vn 0.472900 -0.400000 0.785100
vn 0.472900 -0.400000 -0.785100
vn 0.488500 -0.396100 0.777400
vn 0.488500 -0.777400 -0.396100
vn 0.000000 -1.000000 0.000000
vn 0.488500 0.136500 0.861800
vn 0.488500 0.861800 -0.136500
vn -0.000000 -0.000000 -1.000000
vn 0.000000 0.000000 1.000000
vn 0.488500 0.777400 0.396100
vn 0.488500 0.396100 -0.777400
vn 0.488500 -0.396100 -0.777400
vn 0.488500 -0.777400 0.396100
vn 0.488500 0.396100 0.777400
vn 0.488500 0.777400 -0.396100
vn 0.488500 -0.861800 -0.136500
vn 0.488500 -0.136500 0.861800
vn 0.488500 0.861800 0.136500
vn 0.488500 0.136500 -0.861800
vn 0.488500 -0.617000 -0.617000
vn 0.488500 -0.617000 0.617000
vn 0.488500 -0.136500 -0.861800
vn 0.488500 0.617000 0.617000
vn 0.488500 0.617000 -0.617000
vn -0.796100 -0.605200 -0.001800
vn 0.796100 -0.605200 -0.001800
vn -0.796100 -0.605200 0.001800
vn 0.796100 -0.605200 0.001800
vn 0.000000 -0.583800 0.811900
vn 0.000000 -0.583800 -0.811900
vn 0.795200 0.606300 0.001800
vn -0.795200 0.606300 0.001800
vn 0.795200 0.606300 -0.001800
vn -0.795200 0.606300 -0.001800
vn -0.000000 0.583300 -0.812300
vn -0.000000 0.583300 0.812300
vn -0.739000 -0.002000 0.673700
vn 0.739000 -0.002000 0.673700
vn -0.739000 0.002000 0.673700
vn 0.739000 0.002000 0.673700
vn 0.000000 0.757200 0.653100
vn 0.000000 -0.757200 0.653200
vn 0.737900 0.002000 -0.674900
vn -0.737900 0.002000 -0.674900
vn -0.000000 0.757800 -0.652500
vn -0.000000 -0.757800 -0.652500
vn -0.737900 -0.002000 -0.674900
vn 0.737900 -0.002000 -0.674900
usemtl None
s off
f 2//1 4//1 78//1
f 4//2 6//2 76//2
f 6//3 8//3 74//3
f 8//4 10//4 72//4
f 10//5 12//5 70//5
f 12//6 14//6 68//6
f 14//7 16//7 66//7
f 16//8 18//8 64//8
f 18//9 20//9 62//9
f 62//10 20//10 22//10
f 22//11 24//11 84//11
f 84//12 24//12 26//12
f 26//13 28//13 88//13
f 28//14 30//14 90//14
f 30//15 32//15 92//15
f 32//16 34//16 94//16
f 34//17 36//17 96//17
f 36//18 38//18 98//18
f 12//19 46//19 47//19
f 40//20 2//20 79//20
f 38//21 40//21 100//21
f 13//22 112//22 111//22
f 77//2 78//2 76//2
f 22//23 51//23 52//23
f 32//24 56//24 57//24
f 10//25 8//25 44//25
f 18//26 49//26 50//26
f 28//27 54//27 55//27
f 40//28 38//28 59//28
f 4//29 41//29 43//29
f 14//30 47//30 48//30
f 24//31 52//31 53//31
f 34//32 57//32 58//32
f 12//33 10//33 45//33
f 22//34 20//34 50//34
f 30//35 55//35 56//35
f 40//36 60//36 42//36
f 8//37 6//37 43//37
f 18//38 16//38 48//38
f 2//39 42//39 41//39
f 26//40 53//40 54//40
f 36//41 58//41 59//41
f 77//2 75//2 5//2
f 75//3 76//3 74//3
f 5//3 75//3 73//3
f 73//4 74//4 72//4
f 73//4 71//4 9//4
f 92//42 127//42 126//42
f 71//5 69//5 11//5
f 70//42 68//42 132//42
f 69//6 67//6 13//6
f 68//7 66//7 65//7
f 67//7 65//7 15//7
f 66//8 64//8 63//8
f 65//8 63//8 17//8
f 64//9 62//9 81//9
f 63//9 81//9 19//9
f 85//43 143//43 142//43
f 81//10 83//10 21//10
f 82//42 84//42 142//42
f 83//11 85//11 23//11
f 84//12 86//12 87//12
f 85//12 87//12 25//12
f 86//13 88//13 89//13
f 87//13 89//13 27//13
f 88//14 90//14 91//14
f 89//14 91//14 29//14
f 93//44 129//44 131//44
f 91//15 93//15 31//15
f 69//44 136//44 133//44
f 93//16 95//16 33//16
f 94//17 96//17 97//17
f 95//17 97//17 35//17
f 97//18 96//18 98//18
f 97//18 99//18 37//18
f 79//42 78//42 146//42
f 101//20 80//20 1//20
f 99//21 98//21 100//21
f 99//21 101//21 39//21
f 58//45 57//45 61//45
f 51//46 50//46 61//46
f 44//47 43//47 61//47
f 59//48 58//48 61//48
f 52//49 51//49 61//49
f 45//50 44//50 61//50
f 60//51 59//51 61//51
f 53//52 52//52 61//52
f 46//53 45//53 61//53
f 42//54 60//54 61//54
f 54//55 53//55 61//55
f 47//56 46//56 61//56
f 55//57 54//57 61//57
f 48//58 47//58 61//58
f 56//59 55//59 61//59
f 49//60 48//60 61//60
f 41//61 42//61 61//61
f 57//62 56//62 61//62
f 50//63 49//63 61//63
f 43//64 41//64 61//64
f 80//1 77//1 3//1
f 83//44 148//44 143//44
f 19//65 115//65 114//65
f 7//66 9//66 110//66
f 79//42 139//42 138//42
f 83//44 81//44 145//44
f 81//67 62//67 144//67
f 78//67 77//67 147//67
f 100//43 138//43 140//43
f 80//44 141//44 147//44
f 82//42 149//42 144//42
f 80//44 101//44 140//44
f 113//44 121//44 125//44
f 23//68 117//68 116//68
f 31//69 33//69 122//69
f 69//44 71//44 135//44
f 93//44 91//44 128//44
f 94//70 95//70 131//70
f 67//71 133//71 132//71
f 90//71 126//71 128//71
f 70//42 137//42 134//42
f 92//42 94//42 130//42
f 71//70 72//70 134//70
f 29//72 120//72 119//72
f 37//73 39//73 125//73
f 5//74 108//74 107//74
f 15//75 113//75 112//75
f 25//76 118//76 117//76
f 33//77 35//77 123//77
f 9//78 11//78 111//78
f 21//79 116//79 115//79
f 29//80 31//80 121//80
f 39//81 1//81 106//81
f 7//82 109//82 108//82
f 17//83 114//83 113//83
f 1//84 3//84 107//84
f 25//85 27//85 119//85
f 35//86 37//86 124//86
f 105//87 134//87 137//87
f 105//88 136//88 135//88
f 105//89 137//89 132//89
f 105//90 133//90 136//90
f 105//91 135//91 134//91
f 105//92 132//92 133//92
f 104//93 126//93 127//93
f 104//94 129//94 128//94
f 104//95 127//95 130//95
f 104//96 131//96 129//96
f 104//97 130//97 131//97
f 104//98 128//98 126//98
f 103//99 144//99 149//99
f 103//100 148//100 145//100
f 103//101 149//101 142//101
f 103//102 143//102 148//102
f 103//103 145//103 144//103
f 103//104 142//104 143//104
f 102//105 138//105 139//105
f 102//106 141//106 140//106
f 102//107 140//107 138//107
f 102//108 146//108 147//108
f 102//109 147//109 141//109
f 102//110 139//110 146//110
f 79//1 2//1 78//1
f 78//2 4//2 76//2
f 76//3 6//3 74//3
f 74//4 8//4 72//4
f 72//5 10//5 70//5
f 70//6 12//6 68//6
f 68//7 14//7 66//7
f 66//8 16//8 64//8
f 64//9 18//9 62//9
f 82//10 62//10 22//10
f 82//11 22//11 84//11
f 86//12 84//12 26//12
f 86//13 26//13 88//13
f 88//14 28//14 90//14
f 90//15 30//15 92//15
f 92//16 32//16 94//16
f 94//17 34//17 96//17
f 96//18 36//18 98//18
f 14//19 12//19 47//19
f 100//20 40//20 79//20
f 98//21 38//21 100//21
f 11//22 13//22 111//22
f 75//2 77//2 76//2
f 24//23 22//23 52//23
f 34//24 32//24 57//24
f 45//25 10//25 44//25
f 20//26 18//26 50//26
f 30//27 28//27 55//27
f 60//28 40//28 59//28
f 6//29 4//29 43//29
f 16//30 14//30 48//30
f 26//31 24//31 53//31
f 36//32 34//32 58//32
f 46//33 12//33 45//33
f 51//34 22//34 50//34
f 32//35 30//35 56//35
f 2//36 40//36 42//36
f 44//37 8//37 43//37
f 49//38 18//38 48//38
f 4//39 2//39 41//39
f 28//40 26//40 54//40
f 38//41 36//41 59//41
f 3//2 77//2 5//2
f 73//3 75//3 74//3
f 7//3 5//3 73//3
f 71//4 73//4 72//4
f 7//4 73//4 9//4
f 90//42 92//42 126//42
f 9//5 71//5 11//5
f 137//42 70//42 132//42
f 11//6 69//6 13//6
f 67//7 68//7 65//7
f 13//7 67//7 15//7
f 65//8 66//8 63//8
f 15//8 65//8 17//8
f 63//9 64//9 81//9
f 17//9 63//9 19//9
f 84//43 85//43 142//43
f 19//10 81//10 21//10
f 149//42 82//42 142//42
f 21//11 83//11 23//11
f 85//12 84//12 87//12
f 23//12 85//12 25//12
f 87//13 86//13 89//13
f 25//13 87//13 27//13
f 89//14 88//14 91//14
f 27//14 89//14 29//14
f 95//44 93//44 131//44
f 29//15 91//15 31//15
f 67//44 69//44 133//44
f 31//16 93//16 33//16
f 95//17 94//17 97//17
f 33//17 95//17 35//17
f 99//18 97//18 98//18
f 35//18 97//18 37//18
f 139//42 79//42 146//42
f 39//20 101//20 1//20
f 101//21 99//21 100//21
f 37//21 99//21 39//21
f 1//1 80//1 3//1
f 85//44 83//44 143//44
f 17//65 19//65 114//65
f 109//66 7//66 110//66
f 100//42 79//42 138//42
f 148//44 83//44 145//44
f 145//67 81//67 144//67
f 146//67 78//67 147//67
f 101//43 100//43 140//43
f 77//44 80//44 147//44
f 62//42 82//42 144//42
f 141//44 80//44 140//44
f 125//44 106//44 107//44
f 107//44 108//44 109//44
f 109//44 110//44 113//44
f 111//44 112//44 113//44
f 113//44 114//44 115//44
f 115//44 116//44 113//44
f 117//44 118//44 119//44
f 119//44 120//44 121//44
f 121//44 122//44 125//44
f 123//44 124//44 125//44
f 125//44 107//44 113//44
f 110//44 111//44 113//44
f 113//44 116//44 117//44
f 117//44 119//44 121//44
f 122//44 123//44 125//44
f 107//44 109//44 113//44
f 113//44 117//44 121//44
f 21//68 23//68 116//68
f 121//69 31//69 122//69
f 136//44 69//44 135//44
f 129//44 93//44 128//44
f 130//70 94//70 131//70
f 68//71 67//71 132//71
f 91//71 90//71 128//71
f 72//42 70//42 134//42
f 127//42 92//42 130//42
f 135//70 71//70 134//70
f 27//72 29//72 119//72
f 124//73 37//73 125//73
f 3//74 5//74 107//74
f 13//75 15//75 112//75
f 23//76 25//76 117//76
f 122//77 33//77 123//77
f 110//78 9//78 111//78
f 19//79 21//79 115//79
f 120//80 29//80 121//80
f 125//81 39//81 106//81
f 5//82 7//82 108//82
f 15//83 17//83 113//83
f 106//84 1//84 107//84
f 118//85 25//85 119//85
f 123//86 35//86 124//86
o Cylinder
v 0.081223 -1.115326 -1.051338
v 0.081223 0.884674 -1.051338
v 0.276313 -1.115326 -1.032123
v 0.276313 0.884674 -1.032123
v 0.463906 -1.115326 -0.975218
v 0.463906 0.884674 -0.975218
v 0.636793 -1.115326 -0.882808
v 0.636793 0.884674 -0.882808
v 0.788329 -1.115326 -0.758445
v 0.788329 0.884674 -0.758445
v 0.912692 -1.115326 -0.606908
v 0.912692 0.884674 -0.606908
v 1.005102 -1.115326 -0.434022
v 1.005102 0.884674 -0.434022
v 1.062008 -1.115326 -0.246429
v 1.062008 0.884674 -0.246429
v 1.081223 -1.115326 -0.051338
v 1.081223 0.884674 -0.051338
v 1.062008 -1.115326 0.143752
v 1.062008 0.884674 0.143752
v 1.005102 -1.115326 0.331345
v 1.005102 0.884674 0.331345
v 0.912692 -1.115326 0.504232
v 0.912692 0.884674 0.504232
v 0.788329 -1.115326 0.655769
v 0.788329 0.884674 0.655769
v 0.636793 -1.115326 0.780131
v 0.636793 0.884674 0.780131
v 0.463906 -1.115326 0.872541
v 0.463906 0.884674 0.872541
v 0.276313 -1.115326 0.929447
v 0.276313 0.884674 0.929447
v 0.081222 -1.115326 0.948662
v 0.081222 0.884674 0.948662
v -0.113868 -1.115326 0.929447
v -0.113868 0.884674 0.929447
v -0.301461 -1.115326 0.872541
v -0.301461 0.884674 0.872541
v -0.474348 -1.115326 0.780131
v -0.474348 0.884674 0.780131
v -0.625885 -1.115326 0.655768
v -0.625885 0.884674 0.655768
v -0.750247 -1.115326 0.504231
v -0.750247 0.884674 0.504231
v -0.842657 -1.115326 0.331344
v -0.842657 0.884674 0.331344
v -0.899563 -1.115326 0.143751
v -0.899563 0.884674 0.143751
v -0.918777 -1.115326 -0.051339
v -0.918777 0.884674 -0.051339
v -0.899563 -1.115326 -0.246430
v -0.899563 0.884674 -0.246430
v -0.842657 -1.115326 -0.434023
v -0.842657 0.884674 -0.434023
v -0.750246 -1.115326 -0.606909
v -0.750246 0.884674 -0.606909
v -0.625883 -1.115326 -0.758446
v -0.625883 0.884674 -0.758446
v -0.474347 -1.115326 -0.882809
v -0.474347 0.884674 -0.882809
v -0.301460 -1.115326 -0.975218
v -0.301460 0.884674 -0.975218
v -0.113866 -1.115326 -1.032124
v -0.113866 0.884674 -1.032124
vn 0.098000 0.000000 -0.995200
vn 0.290300 0.000000 -0.956900
vn 0.471400 0.000000 -0.881900
vn 0.634400 0.000000 -0.773000
vn 0.773000 0.000000 -0.634400
vn 0.881900 0.000000 -0.471400
vn 0.956900 0.000000 -0.290300
vn 0.995200 0.000000 -0.098000
vn 0.995200 0.000000 0.098000
vn 0.956900 0.000000 0.290300
vn 0.881900 0.000000 0.471400
vn 0.773000 0.000000 0.634400
vn 0.634400 0.000000 0.773000
vn 0.471400 0.000000 0.881900
vn 0.290300 0.000000 0.956900
vn 0.098000 0.000000 0.995200
vn -0.098000 0.000000 0.995200
vn -0.290300 0.000000 0.956900
vn -0.471400 0.000000 0.881900
vn -0.634400 0.000000 0.773000
vn -0.773000 0.000000 0.634400
vn -0.881900 0.000000 0.471400
vn -0.956900 0.000000 0.290300
vn -0.995200 0.000000 0.098000
vn -0.995200 0.000000 -0.098000
vn -0.956900 0.000000 -0.290300
vn -0.881900 0.000000 -0.471400
vn -0.773000 0.000000 -0.634400
vn -0.634400 0.000000 -0.773000
vn -0.471400 0.000000 -0.881900
vn 0.000000 1.000000 -0.000000
vn -0.098000 0.000000 -0.995200
vn -0.290300 0.000000 -0.956900
vn 0.000000 -1.000000 0.000000
